<svg width="25" height="25" viewBox="0 0 25 25" fill="none" xmlns="http://www.w3.org/2000/svg">
<g filter="url(#filter-icon-etb-alert)">
<path d="M24.6036 21.4564C25.3833 22.9769 24.4046 24.8775 22.8472 24.8775H2.57537C1.01504 24.8775 0.0408287 22.9739 0.819031 21.4564L10.9551 1.68529C11.7352 0.164113 13.6891 0.166869 14.4678 1.68529L24.6036 21.4564ZM12.7114 17.3687C11.6382 17.3687 10.7682 18.3475 10.7682 19.5548C10.7682 20.7622 11.6382 21.7409 12.7114 21.7409C13.7846 21.7409 14.6546 20.7622 14.6546 19.5548C14.6546 18.3475 13.7846 17.3687 12.7114 17.3687ZM10.8665 9.51093L11.1799 15.9741C11.1946 16.2766 11.4168 16.5133 11.6861 16.5133H13.7368C14.006 16.5133 14.2283 16.2766 14.243 15.9741L14.5563 9.51093C14.5722 9.18426 14.341 8.90957 14.0502 8.90957H11.3727C11.0819 8.90957 10.8507 9.18426 10.8665 9.51093Z" fill="#4281A4"/>
</g>
<defs>
<filter id="filter-icon-etb-alert" x="0.54541" y="0.545441" width="24.332" height="25.332" filterUnits="userSpaceOnUse" color-interpolation-filters="sRGB">
<feFlood flood-opacity="0" result="BackgroundImageFix"/>
<feBlend mode="normal" in="SourceGraphic" in2="BackgroundImageFix" result="shape"/>
<feColorMatrix in="SourceAlpha" type="matrix" values="0 0 0 0 0 0 0 0 0 0 0 0 0 0 0 0 0 0 127 0" result="hardAlpha"/>
<feOffset dy="1"/>
<feGaussianBlur stdDeviation="0.5"/>
<feComposite in2="hardAlpha" operator="arithmetic" k2="-1" k3="1"/>
<feColorMatrix type="matrix" values="0 0 0 0 0 0 0 0 0 0 0 0 0 0 0 0 0 0 0.25 0"/>
<feBlend mode="normal" in2="shape" result="effect1_innerShadow"/>
</filter>
</defs>
</svg>
