<svg width="16" height="16" viewBox="0 0 16 16" fill="none" xmlns="http://www.w3.org/2000/svg">
<g filter="url(#filter0_i)">
<path d="M6.49828 0.711448C3.61142 1.27487 1.28509 3.59538 0.715854 6.4735C-0.35873 11.9045 4.54079 15.953 8.23213 15.3809C9.4287 15.195 10.0154 13.7951 9.46645 12.7176C8.79556 11.3991 9.75398 9.85986 11.2352 9.85986H13.5499C14.5896 9.85986 15.4318 9.0002 15.4348 7.96338C15.4202 3.38627 11.2555 -0.21501 6.49828 0.711448ZM3.35294 9.85986C2.83888 9.85986 2.42357 9.44455 2.42357 8.9305C2.42357 8.41644 2.83888 8.00114 3.35294 8.00114C3.867 8.00114 4.28231 8.41644 4.28231 8.9305C4.28231 9.44455 3.867 9.85986 3.35294 9.85986ZM4.28231 6.14241C3.76825 6.14241 3.35294 5.7271 3.35294 5.21305C3.35294 4.69899 3.76825 4.28369 4.28231 4.28369C4.79637 4.28369 5.21168 4.69899 5.21168 5.21305C5.21168 5.7271 4.79637 6.14241 4.28231 6.14241ZM7.99979 4.28369C7.48573 4.28369 7.07042 3.86838 7.07042 3.35432C7.07042 2.84027 7.48573 2.42496 7.99979 2.42496C8.51385 2.42496 8.92916 2.84027 8.92916 3.35432C8.92916 3.86838 8.51385 4.28369 7.99979 4.28369ZM11.7173 6.14241C11.2032 6.14241 10.7879 5.7271 10.7879 5.21305C10.7879 4.69899 11.2032 4.28369 11.7173 4.28369C12.2313 4.28369 12.6466 4.69899 12.6466 5.21305C12.6466 5.7271 12.2313 6.14241 11.7173 6.14241Z" fill="#4281A4"/>
</g>
<defs>
<filter id="filter0_i" x="0.565186" y="0.565217" width="14.8696" height="15.8696" filterUnits="userSpaceOnUse" color-interpolation-filters="sRGB">
<feFlood flood-opacity="0" result="BackgroundImageFix"/>
<feBlend mode="normal" in="SourceGraphic" in2="BackgroundImageFix" result="shape"/>
<feColorMatrix in="SourceAlpha" type="matrix" values="0 0 0 0 0 0 0 0 0 0 0 0 0 0 0 0 0 0 127 0" result="hardAlpha"/>
<feOffset dy="1"/>
<feGaussianBlur stdDeviation="0.5"/>
<feComposite in2="hardAlpha" operator="arithmetic" k2="-1" k3="1"/>
<feColorMatrix type="matrix" values="0 0 0 0 0 0 0 0 0 0 0 0 0 0 0 0 0 0 0.25 0"/>
<feBlend mode="normal" in2="shape" result="effect1_innerShadow"/>
</filter>
</defs>
</svg>
