<svg width="16" height="16" viewBox="0 0 16 16" fill="none" xmlns="http://www.w3.org/2000/svg">
<g filter="url(#filter0_i)">
<path d="M12.1056 6.78798L11.6319 3.35326H13.2662C13.7795 3.35326 14.1956 3.04121 14.1956 2.65625V1.26223C14.1956 0.877279 13.7795 0.565222 13.2662 0.565222H2.73366C2.22039 0.565222 1.80431 0.877279 1.80431 1.26223V2.65625C1.80431 3.04121 2.22039 3.35326 2.73366 3.35326H4.36803L3.89426 6.78798C2.01593 7.44297 0.565186 8.61746 0.565186 10.091C0.565186 10.476 0.981261 10.788 1.49453 10.788H6.76082V13.8086C6.76082 13.8447 6.77201 13.8803 6.79354 13.9125L7.72289 15.3065C7.83677 15.4774 8.16293 15.4777 8.27705 15.3065L9.2064 13.9125C9.2279 13.8803 9.2391 13.8447 9.23912 13.8086V10.788H14.5054C15.0187 10.788 15.4348 10.476 15.4348 10.091C15.4347 8.60457 13.9639 7.436 12.1056 6.78798Z" fill="#4281A4"/>
</g>
<defs>
<filter id="filter0_i" x="0.565186" y="0.565222" width="14.8696" height="15.8696" filterUnits="userSpaceOnUse" color-interpolation-filters="sRGB">
<feFlood flood-opacity="0" result="BackgroundImageFix"/>
<feBlend mode="normal" in="SourceGraphic" in2="BackgroundImageFix" result="shape"/>
<feColorMatrix in="SourceAlpha" type="matrix" values="0 0 0 0 0 0 0 0 0 0 0 0 0 0 0 0 0 0 127 0" result="hardAlpha"/>
<feOffset dy="1"/>
<feGaussianBlur stdDeviation="0.5"/>
<feComposite in2="hardAlpha" operator="arithmetic" k2="-1" k3="1"/>
<feColorMatrix type="matrix" values="0 0 0 0 0 0 0 0 0 0 0 0 0 0 0 0 0 0 0.25 0"/>
<feBlend mode="normal" in2="shape" result="effect1_innerShadow"/>
</filter>
</defs>
</svg>
