<svg width="16" height="16" viewBox="0 0 16 16" fill="none" xmlns="http://www.w3.org/2000/svg">
<path d="M0.565186 7.88726V1.95924C0.565186 1.18933 1.1893 0.565217 1.95921 0.565217H7.88723C8.25695 0.565219 8.61152 0.71209 8.87295 0.973521L15.0265 7.12703C15.5708 7.67142 15.5708 8.55407 15.0265 9.09846L9.09843 15.0265C8.55404 15.5709 7.67139 15.5709 7.12699 15.0265L0.973489 8.87298C0.712059 8.61155 0.565187 8.25698 0.565186 7.88726H0.565186ZM3.8179 2.42391C3.048 2.42391 2.42388 3.04803 2.42388 3.81794C2.42388 4.58784 3.048 5.21196 3.8179 5.21196C4.58781 5.21196 5.21193 4.58784 5.21193 3.81794C5.21193 3.04803 4.58781 2.42391 3.8179 2.42391Z"/>
</svg>
