<svg width="16" height="16" viewBox="0 0 16 16" fill="none" xmlns="http://www.w3.org/2000/svg">
<g filter="url(#filter-icon-ntb-trash)">
<path d="M14.9037 1.49457H10.9208L10.6088 0.951483C10.5427 0.835376 10.4409 0.73771 10.3148 0.669472C10.1887 0.601233 10.0434 0.56513 9.89517 0.565223H6.10144C5.95354 0.564725 5.80846 0.600694 5.68284 0.669009C5.55722 0.737323 5.45613 0.83522 5.39116 0.951483L5.07916 1.49457H1.09624C0.955397 1.49457 0.820321 1.54353 0.720728 1.63067C0.621136 1.71781 0.565186 1.836 0.565186 1.95924L0.565186 2.88859C0.565186 3.01183 0.621136 3.13002 0.720728 3.21716C0.820321 3.30431 0.955397 3.35327 1.09624 3.35327H14.9037C15.0445 3.35327 15.1796 3.30431 15.2792 3.21716C15.3788 3.13002 15.4347 3.01183 15.4347 2.88859V1.95924C15.4347 1.836 15.3788 1.71781 15.2792 1.63067C15.1796 1.54353 15.0445 1.49457 14.9037 1.49457ZM2.33095 14.1279C2.35628 14.4818 2.53479 14.814 2.83016 15.0568C3.12552 15.2996 3.51553 15.4347 3.92079 15.4348H12.0791C12.4844 15.4347 12.8744 15.2996 13.1698 15.0568C13.4651 14.814 13.6437 14.4818 13.669 14.1279L14.3726 4.28261H1.6273L2.33095 14.1279Z"fill="currentColor"/>
</g>
<defs>
<filter id="filter-icon-ntb-trash" x="0.565186" y="0.565217" width="14.8696" height="15.8696" filterUnits="userSpaceOnUse" color-interpolation-filters="sRGB">
<feFlood flood-opacity="0" result="BackgroundImageFix"/>
<feBlend mode="normal" in="SourceGraphic" in2="BackgroundImageFix" result="shape"/>
<feColorMatrix in="SourceAlpha" type="matrix" values="0 0 0 0 0 0 0 0 0 0 0 0 0 0 0 0 0 0 127 0" result="hardAlpha"/>
<feOffset dy="1"/>
<feGaussianBlur stdDeviation="0.5"/>
<feComposite in2="hardAlpha" operator="arithmetic" k2="-1" k3="1"/>
<feColorMatrix type="matrix" values="0 0 0 0 0 0 0 0 0 0 0 0 0 0 0 0 0 0 0.25 0"/>
<feBlend mode="normal" in2="shape" result="effect1_innerShadow"/>
</filter>
</defs>
</svg>
