<svg width="26" height="25" viewBox="0 0 26 25" fill="none" xmlns="http://www.w3.org/2000/svg">
<g filter="url(#filter0_i)">
<path d="M13.6315 0H1.46585C1.2866 0 1.11469 0.0915551 0.987936 0.254524C0.861186 0.417494 0.789978 0.638527 0.789978 0.869001L0.789978 6.083C0.789978 6.31348 0.861186 6.53451 0.987936 6.69748C1.11469 6.86045 1.2866 6.952 1.46585 6.952H2.81759C2.99685 6.952 3.16876 6.86045 3.29551 6.69748C3.42226 6.53451 3.49347 6.31348 3.49347 6.083V4.345H5.85902V20.856H4.16934C3.99009 20.856 3.81818 20.9476 3.69143 21.1105C3.56467 21.2735 3.49347 21.4945 3.49347 21.725V23.463C3.49347 23.6935 3.56467 23.9145 3.69143 24.0775C3.81818 24.2405 3.99009 24.332 4.16934 24.332H10.9281C11.1073 24.332 11.2792 24.2405 11.406 24.0775C11.5327 23.9145 11.6039 23.6935 11.6039 23.463V21.725C11.6039 21.4945 11.5327 21.2735 11.406 21.1105C11.2792 20.9476 11.1073 20.856 10.9281 20.856H9.23838V4.345H11.6039V6.083C11.6039 6.31348 11.6751 6.53451 11.8019 6.69748C11.9286 6.86045 12.1006 6.952 12.2798 6.952H13.6315C13.8108 6.952 13.9827 6.86045 14.1095 6.69748C14.2362 6.53451 14.3074 6.31348 14.3074 6.083V0.869001C14.3074 0.638527 14.2362 0.417494 14.1095 0.254524C13.9827 0.0915551 13.8108 0 13.6315 0ZM24.4455 18.249H22.4179V6.083H24.4455C25.05 6.083 25.3465 5.14285 24.9233 4.59973L21.5439 0.254726C21.4172 0.0918797 21.2453 0.000402769 21.0661 0.000402769C20.887 0.000402769 20.7151 0.0918797 20.5884 0.254726L17.209 4.59973C16.8149 5.10538 17.0261 6.083 17.6868 6.083H19.7144V18.249H17.6868C17.0823 18.249 16.7862 19.1892 17.209 19.7323L20.5884 24.0773C20.7151 24.2401 20.887 24.3316 21.0661 24.3316C21.2453 24.3316 21.4172 24.2401 21.5439 24.0773L24.9233 19.7323C25.3174 19.2266 25.1062 18.249 24.4455 18.249Z" fill="#4281A4"/>
</g>
<defs>
<filter id="filter0_i" x="0.789978" y="0" width="24.332" height="25.332" filterUnits="userSpaceOnUse" color-interpolation-filters="sRGB">
<feFlood flood-opacity="0" result="BackgroundImageFix"/>
<feBlend mode="normal" in="SourceGraphic" in2="BackgroundImageFix" result="shape"/>
<feColorMatrix in="SourceAlpha" type="matrix" values="0 0 0 0 0 0 0 0 0 0 0 0 0 0 0 0 0 0 127 0" result="hardAlpha"/>
<feOffset dy="1"/>
<feGaussianBlur stdDeviation="0.5"/>
<feComposite in2="hardAlpha" operator="arithmetic" k2="-1" k3="1"/>
<feColorMatrix type="matrix" values="0 0 0 0 0 0 0 0 0 0 0 0 0 0 0 0 0 0 0.25 0"/>
<feBlend mode="normal" in2="shape" result="effect1_innerShadow"/>
</filter>
</defs>
</svg>
