<svg width="25" height="25" viewBox="0 0 25 25" fill="none" xmlns="http://www.w3.org/2000/svg">
<g filter="url(#filter0_i)">
<path d="M1.53092 10.4271H24.1231C24.3535 10.4271 24.5745 10.3356 24.7375 10.1726C24.9004 10.0097 24.992 9.78867 24.992 9.55821V7.82036C24.992 7.5899 24.9004 7.36889 24.7375 7.20593C24.5745 7.04298 24.3535 6.95143 24.1231 6.95143H1.53092C1.30046 6.95143 1.07945 7.04298 0.916491 7.20593C0.753535 7.36889 0.661987 7.5899 0.661987 7.82036L0.661987 9.55821C0.661987 9.78867 0.753535 10.0097 0.916491 10.1726C1.07945 10.3356 1.30046 10.4271 1.53092 10.4271ZM24.1231 20.8543H1.53092C1.30046 20.8543 1.07945 20.9458 0.916491 21.1088C0.753535 21.2717 0.661987 21.4928 0.661987 21.7232L0.661987 23.4611C0.661987 23.6915 0.753535 23.9125 0.916491 24.0755C1.07945 24.2385 1.30046 24.33 1.53092 24.33H24.1231C24.3535 24.33 24.5745 24.2385 24.7375 24.0755C24.9004 23.9125 24.992 23.6915 24.992 23.4611V21.7232C24.992 21.4928 24.9004 21.2717 24.7375 21.1088C24.5745 20.9458 24.3535 20.8543 24.1231 20.8543ZM24.2952 2.11996e-07H10.048C9.95652 -7.12055e-05 9.86589 0.0179025 9.78132 0.0528933C9.69675 0.0878841 9.61991 0.139205 9.55519 0.203921C9.49048 0.268636 9.43916 0.345476 9.40417 0.430045C9.36918 0.514613 9.3512 0.605251 9.35127 0.696772V2.77894C9.3512 2.87046 9.36918 2.9611 9.40417 3.04567C9.43916 3.13024 9.49048 3.20708 9.55519 3.27179C9.61991 3.33651 9.69675 3.38783 9.78132 3.42282C9.86589 3.45781 9.95652 3.47579 10.048 3.47571H24.2952C24.3867 3.47579 24.4774 3.45781 24.5619 3.42282C24.6465 3.38783 24.7234 3.33651 24.7881 3.27179C24.8528 3.20708 24.9041 3.13024 24.9391 3.04567C24.9741 2.9611 24.9921 2.87046 24.992 2.77894V0.696772C24.9921 0.605251 24.9741 0.514613 24.9391 0.430045C24.9041 0.345476 24.8528 0.268636 24.7881 0.203921C24.7234 0.139205 24.6465 0.0878841 24.5619 0.0528933C24.4774 0.0179025 24.3867 -7.12055e-05 24.2952 2.11996e-07ZM24.2952 13.9029H10.048C9.95652 13.9028 9.86589 13.9208 9.78132 13.9557C9.69675 13.9907 9.61991 14.0421 9.55519 14.1068C9.49048 14.1715 9.43916 14.2483 9.40417 14.3329C9.36918 14.4175 9.3512 14.5081 9.35127 14.5996V16.6818C9.3512 16.7733 9.36918 16.864 9.40417 16.9485C9.43916 17.0331 9.49048 17.1099 9.55519 17.1747C9.61991 17.2394 9.69675 17.2907 9.78132 17.3257C9.86589 17.3607 9.95652 17.3786 10.048 17.3786H24.2952C24.3867 17.3786 24.4774 17.3607 24.5619 17.3257C24.6465 17.2907 24.7234 17.2394 24.7881 17.1747C24.8528 17.1099 24.9041 17.0331 24.9391 16.9485C24.9741 16.864 24.9921 16.7733 24.992 16.6818V14.5996C24.9921 14.5081 24.9741 14.4175 24.9391 14.3329C24.9041 14.2483 24.8528 14.1715 24.7881 14.1068C24.7234 14.0421 24.6465 13.9907 24.5619 13.9557C24.4774 13.9208 24.3867 13.9028 24.2952 13.9029Z" fill="#4281A4"/>
</g>
<defs>
<filter id="filter0_i" x="0.661987" y="0" width="24.33" height="25.33" filterUnits="userSpaceOnUse" color-interpolation-filters="sRGB">
<feFlood flood-opacity="0" result="BackgroundImageFix"/>
<feBlend mode="normal" in="SourceGraphic" in2="BackgroundImageFix" result="shape"/>
<feColorMatrix in="SourceAlpha" type="matrix" values="0 0 0 0 0 0 0 0 0 0 0 0 0 0 0 0 0 0 127 0" result="hardAlpha"/>
<feOffset dy="1"/>
<feGaussianBlur stdDeviation="0.5"/>
<feComposite in2="hardAlpha" operator="arithmetic" k2="-1" k3="1"/>
<feColorMatrix type="matrix" values="0 0 0 0 0 0 0 0 0 0 0 0 0 0 0 0 0 0 0.25 0"/>
<feBlend mode="normal" in2="shape" result="effect1_innerShadow"/>
</filter>
</defs>
</svg>
