<svg width="16" height="16" viewBox="0 0 16 16" fill="none" xmlns="http://www.w3.org/2000/svg">
<path d="M14.0408 0.565217C14.8107 0.565217 15.4348 1.18933 15.4348 1.95924V10.3234C15.4348 11.0933 14.8107 11.7174 14.0408 11.7174H5.67666C4.90675 11.7174 4.28264 11.0933 4.28264 10.3234V1.95924C4.28264 1.18933 4.90675 0.565217 5.67666 0.565217H14.0408ZM5.67666 12.6467C4.39555 12.6467 3.35329 11.6045 3.35329 10.3234V4.28261H1.95927C1.18936 4.28261 0.565247 4.90672 0.565247 5.67663V14.0408C0.565247 14.8107 1.18936 15.4348 1.95927 15.4348H10.3234C11.0933 15.4348 11.7174 14.8107 11.7174 14.0408V12.6467H5.67666Z"/>
</svg>
