<svg width="25" height="25" viewBox="0 0 25 25" fill="none" xmlns="http://www.w3.org/2000/svg">
<g filter="url(#filter0_i)">
<path d="M23.7931 6.95143H1.20096C0.970506 6.95143 0.74949 7.04298 0.586535 7.20593C0.423579 7.36889 0.332031 7.5899 0.332031 7.82036L0.332031 9.55822C0.332031 9.78867 0.423579 10.0097 0.586535 10.1726C0.74949 10.3356 0.970506 10.4271 1.20096 10.4271H23.7931C24.0236 10.4271 24.2446 10.3356 24.4075 10.1726C24.5705 10.0097 24.662 9.78867 24.662 9.55822V7.82036C24.662 7.5899 24.5705 7.36889 24.4075 7.20593C24.2446 7.04298 24.0236 6.95143 23.7931 6.95143ZM23.7931 20.8543H1.20096C0.970506 20.8543 0.74949 20.9458 0.586535 21.1088C0.423579 21.2717 0.332031 21.4928 0.332031 21.7232L0.332031 23.4611C0.332031 23.6915 0.423579 23.9125 0.586535 24.0755C0.74949 24.2385 0.970506 24.33 1.20096 24.33H23.7931C24.0236 24.33 24.2446 24.2385 24.4075 24.0755C24.5705 23.9125 24.662 23.6915 24.662 23.4611V21.7232C24.662 21.4928 24.5705 21.2717 24.4075 21.1088C24.2446 20.9458 24.0236 20.8543 23.7931 20.8543ZM6.20273 3.47571H18.7919C18.8781 3.47571 18.9636 3.45871 19.0433 3.42568C19.123 3.39265 19.1954 3.34424 19.2563 3.28321C19.3173 3.22219 19.3657 3.14974 19.3986 3.07002C19.4316 2.99029 19.4485 2.90486 19.4485 2.81859V0.656584C19.4485 0.570361 19.4315 0.484981 19.3985 0.40532C19.3655 0.32566 19.3171 0.253279 19.2562 0.192309C19.1952 0.13134 19.1228 0.0829761 19.0431 0.0499797C18.9635 0.0169832 18.8781 2.24621e-07 18.7919 2.24621e-07H6.20273C6.11646 -7.11315e-05 6.03102 0.0168592 5.9513 0.0498237C5.87158 0.0827882 5.79913 0.131141 5.7381 0.192117C5.67708 0.253094 5.62866 0.325499 5.59563 0.405195C5.5626 0.484891 5.5456 0.570315 5.5456 0.656584V2.81859C5.5456 2.99287 5.61484 3.16001 5.73807 3.28325C5.86131 3.40648 6.02845 3.47571 6.20273 3.47571ZM18.7919 17.3786C18.8781 17.3786 18.9636 17.3616 19.0433 17.3285C19.123 17.2955 19.1954 17.2471 19.2563 17.1861C19.3173 17.125 19.3657 17.0526 19.3986 16.9729C19.4316 16.8932 19.4485 16.8077 19.4485 16.7214V14.5594C19.4485 14.3853 19.3793 14.2183 19.2562 14.0952C19.133 13.972 18.966 13.9029 18.7919 13.9029H6.20273C6.11646 13.9028 6.03102 13.9197 5.9513 13.9527C5.87158 13.9856 5.79913 14.034 5.7381 14.095C5.67708 14.156 5.62866 14.2284 5.59563 14.3081C5.5626 14.3877 5.5456 14.4732 5.5456 14.5594V16.7214C5.5456 16.8077 5.5626 16.8932 5.59562 16.9729C5.62865 17.0526 5.67705 17.1251 5.73807 17.1861C5.79909 17.2471 5.87153 17.2955 5.95126 17.3286C6.03098 17.3616 6.11644 17.3786 6.20273 17.3786H18.7919Z" fill="#4281A4"/>
</g>
<defs>
<filter id="filter0_i" x="0.332031" y="0" width="24.33" height="25.33" filterUnits="userSpaceOnUse" color-interpolation-filters="sRGB">
<feFlood flood-opacity="0" result="BackgroundImageFix"/>
<feBlend mode="normal" in="SourceGraphic" in2="BackgroundImageFix" result="shape"/>
<feColorMatrix in="SourceAlpha" type="matrix" values="0 0 0 0 0 0 0 0 0 0 0 0 0 0 0 0 0 0 127 0" result="hardAlpha"/>
<feOffset dy="1"/>
<feGaussianBlur stdDeviation="0.5"/>
<feComposite in2="hardAlpha" operator="arithmetic" k2="-1" k3="1"/>
<feColorMatrix type="matrix" values="0 0 0 0 0 0 0 0 0 0 0 0 0 0 0 0 0 0 0.25 0"/>
<feBlend mode="normal" in2="shape" result="effect1_innerShadow"/>
</filter>
</defs>
</svg>
