<svg width="16" height="16" viewBox="0 0 16 16" fill="none" xmlns="http://www.w3.org/2000/svg">
<g filter="url(#filter-icon-ntb-archive)">
<path d="M1.49459 14.3727C1.49459 14.9602 1.9099 15.4348 2.42394 15.4348H13.5761C14.0902 15.4348 14.5055 14.9602 14.5055 14.3727V4.81366H1.49459V14.3727ZM6.14133 7.33618C6.14133 7.11712 6.29816 6.93789 6.48984 6.93789H9.51022C9.7019 6.93789 9.85872 7.11712 9.85872 7.33618V7.60171C9.85872 7.82077 9.7019 8 9.51022 8H6.48984C6.29816 8 6.14133 7.82077 6.14133 7.60171V7.33618ZM14.5055 0.565217H1.49459C0.980549 0.565217 0.565247 1.03985 0.565247 1.62733V3.2205C0.565247 3.51258 0.77435 3.75155 1.02992 3.75155H14.9701C15.2257 3.75155 15.4348 3.51258 15.4348 3.2205V1.62733C15.4348 1.03985 15.0195 0.565217 14.5055 0.565217Z" fill="#4281A4"/>
</g>
<defs>
<filter id="filter-icon-ntb-archive" x="0.565247" y="0.565217" width="14.8696" height="15.8696" filterUnits="userSpaceOnUse" color-interpolation-filters="sRGB">
<feFlood flood-opacity="0" result="BackgroundImageFix"/>
<feBlend mode="normal" in="SourceGraphic" in2="BackgroundImageFix" result="shape"/>
<feColorMatrix in="SourceAlpha" type="matrix" values="0 0 0 0 0 0 0 0 0 0 0 0 0 0 0 0 0 0 127 0" result="hardAlpha"/>
<feOffset dy="1"/>
<feGaussianBlur stdDeviation="0.5"/>
<feComposite in2="hardAlpha" operator="arithmetic" k2="-1" k3="1"/>
<feColorMatrix type="matrix" values="0 0 0 0 0 0 0 0 0 0 0 0 0 0 0 0 0 0 0.25 0"/>
<feBlend mode="normal" in2="shape" result="effect1_innerShadow"/>
</filter>
</defs>
</svg>
