<svg width="83" height="7" viewBox="0 0 83 7" fill="none" xmlns="http://www.w3.org/2000/svg">
<path d="M0 3H36V5H0V3Z"/>
<path d="M47 3H83V5H47V3Z"/>
<path d="M38 3.44693V0.65625C38 0.293809 38.2938 0 38.6562 0H41.4469C41.621 9.10105e-07 41.7879 0.069142 41.911 0.192213L44.8078 3.08904C45.0641 3.34532 45.0641 3.76083 44.8078 4.01711L42.0171 6.80779C41.7608 7.06407 41.3453 7.06407 41.089 6.80779L38.1922 3.91096C38.0691 3.78789 38 3.62098 38 3.44693ZM39.5312 0.875C39.1688 0.875 38.875 1.16881 38.875 1.53125C38.875 1.89369 39.1688 2.1875 39.5312 2.1875C39.8937 2.1875 40.1875 1.89369 40.1875 1.53125C40.1875 1.16881 39.8937 0.875 39.5312 0.875Z"/>
</svg>
