<svg width="25" height="25" viewBox="0 0 25 25" fill="none" xmlns="http://www.w3.org/2000/svg">
<g filter="url(#filter-icon-etb-bullet-list)">
<path d="M2.55364 0C2.10252 0 1.66152 0.164646 1.28642 0.473117C0.911324 0.781587 0.618971 1.22003 0.446332 1.733C0.273693 2.24597 0.228523 2.81042 0.316534 3.35499C0.404544 3.89955 0.621782 4.39977 0.940777 4.79237C1.25977 5.18498 1.6662 5.45235 2.10865 5.56067C2.55111 5.66899 3.00973 5.6134 3.42652 5.40092C3.84331 5.18844 4.19954 4.82862 4.45017 4.36696C4.70081 3.9053 4.83458 3.36254 4.83458 2.80731C4.83458 2.06276 4.59427 1.34871 4.16651 0.822241C3.73875 0.295769 3.15859 0 2.55364 0ZM2.55364 9.35769C2.10252 9.35769 1.66152 9.52234 1.28642 9.83081C0.911324 10.1393 0.618971 10.5777 0.446332 11.0907C0.273693 11.6037 0.228523 12.1681 0.316534 12.7127C0.404544 13.2572 0.621782 13.7575 0.940777 14.1501C1.25977 14.5427 1.6662 14.81 2.10865 14.9184C2.55111 15.0267 3.00973 14.9711 3.42652 14.7586C3.84331 14.5461 4.19954 14.1863 4.45017 13.7247C4.70081 13.263 4.83458 12.7202 4.83458 12.165C4.83458 11.4205 4.59427 10.7064 4.16651 10.1799C3.73875 9.65346 3.15859 9.35769 2.55364 9.35769ZM2.55364 18.7154C2.10252 18.7154 1.66152 18.88 1.28642 19.1885C0.911324 19.497 0.618971 19.9354 0.446332 20.4484C0.273693 20.9613 0.228523 21.5258 0.316534 22.0704C0.404544 22.6149 0.621782 23.1151 0.940777 23.5078C1.25977 23.9004 1.6662 24.1677 2.10865 24.2761C2.55111 24.3844 3.00973 24.3288 3.42652 24.1163C3.84331 23.9038 4.19954 23.544 4.45017 23.0823C4.70081 22.6207 4.83458 22.0779 4.83458 21.5227C4.83458 20.7781 4.59427 20.0641 4.16651 19.5376C3.73875 19.0112 3.15859 18.7154 2.55364 18.7154ZM23.8424 19.6512H8.63614C8.4345 19.6512 8.24111 19.7497 8.09852 19.9252C7.95594 20.1007 7.87583 20.3387 7.87583 20.5869V22.4585C7.87583 22.7066 7.95594 22.9447 8.09852 23.1201C8.24111 23.2956 8.4345 23.3942 8.63614 23.3942H23.8424C24.044 23.3942 24.2374 23.2956 24.38 23.1201C24.5226 22.9447 24.6027 22.7066 24.6027 22.4585V20.5869C24.6027 20.3387 24.5226 20.1007 24.38 19.9252C24.2374 19.7497 24.044 19.6512 23.8424 19.6512ZM23.8424 0.935769H8.63614C8.4345 0.935769 8.24111 1.03436 8.09852 1.20985C7.95594 1.38534 7.87583 1.62336 7.87583 1.87154V3.74308C7.87583 3.99126 7.95594 4.22927 8.09852 4.40477C8.24111 4.58026 8.4345 4.67885 8.63614 4.67885H23.8424C24.044 4.67885 24.2374 4.58026 24.38 4.40477C24.5226 4.22927 24.6027 3.99126 24.6027 3.74308V1.87154C24.6027 1.62336 24.5226 1.38534 24.38 1.20985C24.2374 1.03436 24.044 0.935769 23.8424 0.935769ZM23.8424 10.2935H8.63614C8.4345 10.2935 8.24111 10.3921 8.09852 10.5675C7.95594 10.743 7.87583 10.981 7.87583 11.2292V13.1008C7.87583 13.3489 7.95594 13.587 8.09852 13.7625C8.24111 13.9379 8.4345 14.0365 8.63614 14.0365H23.8424C24.044 14.0365 24.2374 13.9379 24.38 13.7625C24.5226 13.587 24.6027 13.3489 24.6027 13.1008V11.2292C24.6027 10.981 24.5226 10.743 24.38 10.5675C24.2374 10.3921 24.044 10.2935 23.8424 10.2935Z" fill="#4281A4"/>
</g>
<defs>
<filter id="filter-icon-etb-bullet-list" x="0.272705" y="0" width="24.33" height="25.33" filterUnits="userSpaceOnUse" color-interpolation-filters="sRGB">
<feFlood flood-opacity="0" result="BackgroundImageFix"/>
<feBlend mode="normal" in="SourceGraphic" in2="BackgroundImageFix" result="shape"/>
<feColorMatrix in="SourceAlpha" type="matrix" values="0 0 0 0 0 0 0 0 0 0 0 0 0 0 0 0 0 0 127 0" result="hardAlpha"/>
<feOffset dy="1"/>
<feGaussianBlur stdDeviation="0.5"/>
<feComposite in2="hardAlpha" operator="arithmetic" k2="-1" k3="1"/>
<feColorMatrix type="matrix" values="0 0 0 0 0 0 0 0 0 0 0 0 0 0 0 0 0 0 0.25 0"/>
<feBlend mode="normal" in2="shape" result="effect1_innerShadow"/>
</filter>
</defs>
</svg>
