<svg width="25" height="25" viewBox="0 0 25 25" fill="none" xmlns="http://www.w3.org/2000/svg">
<g filter="url(#filter0_i)">
<path d="M21.4634 11.7338C22.4731 10.7235 23.0959 9.49137 23.2536 8.1921C23.743 4.04806 19.7734 0.545441 14.8285 0.545441H1.60632C1.32497 0.545441 1.05514 0.636996 0.856187 0.799965C0.657239 0.962934 0.545471 1.18397 0.545471 1.41444V4.02144C0.545471 4.25192 0.657239 4.47295 0.856187 4.63592C1.05514 4.79889 1.32497 4.89044 1.60632 4.89044H3.7194V20.5325H1.60632C1.32497 20.5325 1.05514 20.624 0.856187 20.787C0.657239 20.9499 0.545471 21.171 0.545471 21.4015V24.0085C0.545471 24.2389 0.657239 24.46 0.856187 24.6229C1.05514 24.7859 1.32497 24.8775 1.60632 24.8775H15.4849C20.1792 24.8775 24.3788 22.0668 24.8336 18.2296C25.1479 15.5982 23.7469 13.2296 21.4634 11.7338ZM9.00973 4.89044H14.8285C15.6726 4.89044 16.4821 5.16511 17.0789 5.65402C17.6757 6.14292 18.011 6.80603 18.011 7.49745C18.011 8.18887 17.6757 8.85197 17.0789 9.34087C16.4821 9.82978 15.6726 10.1044 14.8285 10.1044H9.00973V4.89044ZM14.8285 20.5325H9.00973V14.4495H14.8285C15.8132 14.4495 16.7576 14.7699 17.454 15.3403C18.1503 15.9107 18.5415 16.6843 18.5415 17.491C18.5415 18.2976 18.1503 19.0712 17.454 19.6416C16.7576 20.212 15.8132 20.5325 14.8285 20.5325Z" fill="#4281A4"/>
</g>
<defs>
<filter id="filter0_i" x="0.545471" y="0.545441" width="24.332" height="25.332" filterUnits="userSpaceOnUse" color-interpolation-filters="sRGB">
<feFlood flood-opacity="0" result="BackgroundImageFix"/>
<feBlend mode="normal" in="SourceGraphic" in2="BackgroundImageFix" result="shape"/>
<feColorMatrix in="SourceAlpha" type="matrix" values="0 0 0 0 0 0 0 0 0 0 0 0 0 0 0 0 0 0 127 0" result="hardAlpha"/>
<feOffset dy="1"/>
<feGaussianBlur stdDeviation="0.5"/>
<feComposite in2="hardAlpha" operator="arithmetic" k2="-1" k3="1"/>
<feColorMatrix type="matrix" values="0 0 0 0 0 0 0 0 0 0 0 0 0 0 0 0 0 0 0.25 0"/>
<feBlend mode="normal" in2="shape" result="effect1_innerShadow"/>
</filter>
</defs>
</svg>
