<svg width="25" height="25" viewBox="0 0 25 25" fill="none" xmlns="http://www.w3.org/2000/svg">
<g filter="url(#filter-icon-etb-strikethrough)">
<path d="M23.5697 10.4271H13.966L9.82371 8.97006C9.3502 8.80335 8.94473 8.44802 8.681 7.96865C8.41727 7.48927 8.31279 6.91767 8.38654 6.35772C8.46029 5.79777 8.70737 5.28665 9.08289 4.91724C9.45841 4.54783 9.93744 4.34466 10.4329 4.34464H13.6067C14.0473 4.34428 14.4793 4.48423 14.8541 4.7488C15.229 5.01337 15.5319 5.39209 15.729 5.84246C15.8192 6.04844 15.9773 6.20505 16.1685 6.27787C16.3597 6.35068 16.5684 6.33374 16.7487 6.23076L18.7892 5.06477C18.9695 4.96175 19.1067 4.7811 19.1705 4.56255C19.2343 4.344 19.2195 4.10544 19.1295 3.89932L19.1043 3.84501C18.5993 2.68962 17.8226 1.71786 16.8614 1.03872C15.9002 0.359567 14.7924 -0.000117615 13.6623 2.88493e-08H10.431C9.61168 0.000759888 8.80154 0.197296 8.0526 0.576993C7.30365 0.956689 6.63244 1.51116 6.08206 2.20481C5.53168 2.89846 5.11428 3.71596 4.85666 4.60484C4.59903 5.49373 4.50688 6.43435 4.58611 7.36634C4.68115 8.50084 5.06606 9.52943 5.62109 10.4271H0.760312C0.558665 10.4271 0.365277 10.5187 0.22269 10.6816C0.0801041 10.8446 0 11.0656 0 11.2961L0 13.0339C0 13.2644 0.0801041 13.4854 0.22269 13.6484C0.365277 13.8113 0.558665 13.9029 0.760312 13.9029H23.5697C23.7713 13.9029 23.9647 13.8113 24.1073 13.6484C24.2499 13.4854 24.33 13.2644 24.33 13.0339V11.2961C24.33 11.0656 24.2499 10.8446 24.1073 10.6816C23.9647 10.5187 23.7713 10.4271 23.5697 10.4271ZM15.0048 15.6407C15.2988 15.8504 15.5414 16.1421 15.7096 16.4883C15.8779 16.8346 15.9663 17.2241 15.9666 17.6202C15.9661 18.2473 15.7479 18.8486 15.3599 19.292C14.9719 19.7354 14.4458 19.9848 13.8971 19.9854H10.7233C10.2827 19.9857 9.85072 19.8458 9.47586 19.5812C9.10099 19.3166 8.79806 18.9379 8.60104 18.4875C8.51081 18.2816 8.35271 18.1249 8.16148 18.0521C7.97026 17.9793 7.76156 17.9963 7.58127 18.0992L5.54078 19.2652C5.36046 19.3682 5.22332 19.5489 5.15952 19.7674C5.09571 19.986 5.11047 20.2246 5.20054 20.4307L5.22572 20.485C5.73073 21.6404 6.50739 22.6121 7.4686 23.2913C8.42982 23.9704 9.53758 24.3301 10.6677 24.33H13.899C14.7183 24.3292 15.5285 24.1327 16.2774 23.753C17.0264 23.3733 17.6976 22.8188 18.2479 22.1252C18.7983 21.4315 19.2157 20.614 19.4733 19.7252C19.731 18.8363 19.8231 17.8956 19.7439 16.9637C19.7018 16.5134 19.6167 16.0698 19.4901 15.6407H15.0048Z" fill="#4281A4"/>
</g>
<defs>
<filter id="filter-icon-etb-strikethrough" x="0" y="0" width="24.33" height="25.33" filterUnits="userSpaceOnUse" color-interpolation-filters="sRGB">
<feFlood flood-opacity="0" result="BackgroundImageFix"/>
<feBlend mode="normal" in="SourceGraphic" in2="BackgroundImageFix" result="shape"/>
<feColorMatrix in="SourceAlpha" type="matrix" values="0 0 0 0 0 0 0 0 0 0 0 0 0 0 0 0 0 0 127 0" result="hardAlpha"/>
<feOffset dy="1"/>
<feGaussianBlur stdDeviation="0.5"/>
<feComposite in2="hardAlpha" operator="arithmetic" k2="-1" k3="1"/>
<feColorMatrix type="matrix" values="0 0 0 0 0 0 0 0 0 0 0 0 0 0 0 0 0 0 0.25 0"/>
<feBlend mode="normal" in2="shape" result="effect1_innerShadow"/>
</filter>
</defs>
</svg>
