<svg width="25" height="25" viewBox="0 0 25 25" fill="none" xmlns="http://www.w3.org/2000/svg">
<g filter="url(#filter0_i)">
<path d="M0.69683 17.38H14.9452C15.0367 17.3801 15.1274 17.3621 15.2119 17.3271C15.2965 17.2921 15.3734 17.2408 15.4381 17.1761C15.5028 17.1114 15.5541 17.0345 15.5891 16.9499C15.6241 16.8654 15.6421 16.7747 15.642 16.6832V14.6008C15.6421 14.5093 15.6241 14.4187 15.5891 14.3341C15.5541 14.2495 15.5028 14.1727 15.4381 14.1079C15.3734 14.0432 15.2965 13.9919 15.2119 13.9569C15.1274 13.9219 15.0367 13.9039 14.9452 13.904H0.69683C0.605301 13.9039 0.514656 13.9219 0.43008 13.9569C0.345505 13.9919 0.268659 14.0432 0.203938 14.1079C0.139217 14.1727 0.0878914 14.2495 0.0528978 14.3341C0.0179041 14.4187 -7.12114e-05 14.5093 2.12012e-07 14.6008V16.6832C-7.12114e-05 16.7747 0.0179041 16.8654 0.0528978 16.9499C0.0878914 17.0345 0.139217 17.1114 0.203938 17.1761C0.268659 17.2408 0.345505 17.2921 0.43008 17.3271C0.514656 17.3621 0.605301 17.3801 0.69683 17.38ZM0.69683 3.476H14.9452C15.0367 3.47607 15.1274 3.4581 15.2119 3.42311C15.2965 3.38811 15.3734 3.33679 15.4381 3.27206C15.5028 3.20734 15.5541 3.1305 15.5891 3.04592C15.6241 2.96135 15.6421 2.8707 15.642 2.77917V0.69683C15.6421 0.605301 15.6241 0.514656 15.5891 0.43008C15.5541 0.345505 15.5028 0.268658 15.4381 0.203938C15.3734 0.139217 15.2965 0.0878913 15.2119 0.0528977C15.1274 0.017904 15.0367 -7.12114e-05 14.9452 2.12013e-07H0.69683C0.605301 -7.12114e-05 0.514656 0.017904 0.43008 0.0528977C0.345505 0.0878913 0.268659 0.139217 0.203938 0.203938C0.139217 0.268658 0.0878914 0.345505 0.0528978 0.43008C0.0179041 0.514656 -7.12114e-05 0.605301 2.12012e-07 0.69683V2.77917C-7.12114e-05 2.8707 0.0179041 2.96135 0.0528978 3.04592C0.0878914 3.1305 0.139217 3.20734 0.203938 3.27206C0.268659 3.33679 0.345505 3.38811 0.43008 3.42311C0.514656 3.4581 0.605301 3.47607 0.69683 3.476ZM23.463 6.952H0.869001C0.638528 6.952 0.417494 7.04356 0.254525 7.20653C0.0915554 7.3695 2.12012e-07 7.59053 2.12012e-07 7.82101V9.55901C2.12012e-07 9.78948 0.0915554 10.0105 0.254525 10.1735C0.417494 10.3365 0.638528 10.428 0.869001 10.428H23.463C23.6935 10.428 23.9145 10.3365 24.0775 10.1735C24.2405 10.0105 24.332 9.78948 24.332 9.55901V7.82101C24.332 7.59053 24.2405 7.3695 24.0775 7.20653C23.9145 7.04356 23.6935 6.952 23.463 6.952ZM23.463 20.856H0.869001C0.638528 20.856 0.417494 20.9476 0.254525 21.1105C0.0915554 21.2735 2.12012e-07 21.4945 2.12012e-07 21.725V23.463C2.12012e-07 23.6935 0.0915554 23.9145 0.254525 24.0775C0.417494 24.2405 0.638528 24.332 0.869001 24.332H23.463C23.6935 24.332 23.9145 24.2405 24.0775 24.0775C24.2405 23.9145 24.332 23.6935 24.332 23.463V21.725C24.332 21.4945 24.2405 21.2735 24.0775 21.1105C23.9145 20.9476 23.6935 20.856 23.463 20.856Z" fill="#4281A4"/>
</g>
<defs>
<filter id="filter0_i" x="0" y="0" width="24.332" height="25.332" filterUnits="userSpaceOnUse" color-interpolation-filters="sRGB">
<feFlood flood-opacity="0" result="BackgroundImageFix"/>
<feBlend mode="normal" in="SourceGraphic" in2="BackgroundImageFix" result="shape"/>
<feColorMatrix in="SourceAlpha" type="matrix" values="0 0 0 0 0 0 0 0 0 0 0 0 0 0 0 0 0 0 127 0" result="hardAlpha"/>
<feOffset dy="1"/>
<feGaussianBlur stdDeviation="0.5"/>
<feComposite in2="hardAlpha" operator="arithmetic" k2="-1" k3="1"/>
<feColorMatrix type="matrix" values="0 0 0 0 0 0 0 0 0 0 0 0 0 0 0 0 0 0 0.25 0"/>
<feBlend mode="normal" in2="shape" result="effect1_innerShadow"/>
</filter>
</defs>
</svg>
