<svg width="25" height="25" viewBox="0 0 25 25" fill="none" xmlns="http://www.w3.org/2000/svg">
<g filter="url(#filter0_i)">
<path d="M2.93528 20.0397L3.76687 18.9454C3.93238 18.7344 4.01888 18.4577 4.0078 18.1747V17.995C4.0078 17.5958 3.82532 17.3786 3.46893 17.3786H0.760312C0.659489 17.3786 0.562795 17.4243 0.491501 17.5058C0.420208 17.5873 0.380156 17.6978 0.380156 17.813V18.682C0.380156 18.7972 0.420208 18.9077 0.491501 18.9892C0.562795 19.0707 0.659489 19.1164 0.760312 19.1164H1.84518C1.66083 19.3287 1.48635 19.5518 1.32247 19.785L1.05588 20.1651C0.865806 20.4405 0.806406 20.7153 0.922829 20.9732L0.972725 21.078C1.11528 21.3908 1.27162 21.506 1.55484 21.506H1.77961C2.27048 21.506 2.53707 21.6385 2.53707 21.9996C2.53707 22.256 2.33749 22.4461 1.85469 22.4461C1.60242 22.4438 1.35288 22.3863 1.11956 22.2766C0.811158 22.0659 0.561681 22.0865 0.378255 22.4461L0.112621 22.9517C-0.0641514 23.2846 -0.038966 23.5882 0.237598 23.8173C0.603973 24.072 1.20605 24.33 1.99582 24.33C3.61909 24.33 4.30052 23.0945 4.30052 21.9339C4.29909 21.153 3.86714 20.3177 2.93528 20.0397ZM23.5697 10.4271H8.36344C8.16179 10.4271 7.9684 10.5187 7.82582 10.6816C7.68323 10.8446 7.60313 11.0656 7.60313 11.2961V13.0339C7.60313 13.2644 7.68323 13.4854 7.82582 13.6484C7.9684 13.8113 8.16179 13.9029 8.36344 13.9029H23.5697C23.7713 13.9029 23.9647 13.8113 24.1073 13.6484C24.2499 13.4854 24.33 13.2644 24.33 13.0339V11.2961C24.33 11.0656 24.2499 10.8446 24.1073 10.6816C23.9647 10.5187 23.7713 10.4271 23.5697 10.4271ZM23.5697 1.73786H8.36344C8.16179 1.73786 7.9684 1.8294 7.82582 1.99236C7.68323 2.15532 7.60313 2.37633 7.60313 2.60679V4.34464C7.60313 4.5751 7.68323 4.79611 7.82582 4.95907C7.9684 5.12202 8.16179 5.21357 8.36344 5.21357H23.5697C23.7713 5.21357 23.9647 5.12202 24.1073 4.95907C24.2499 4.79611 24.33 4.5751 24.33 4.34464V2.60679C24.33 2.37633 24.2499 2.15532 24.1073 1.99236C23.9647 1.8294 23.7713 1.73786 23.5697 1.73786ZM23.5697 19.1164H8.36344C8.16179 19.1164 7.9684 19.208 7.82582 19.3709C7.68323 19.5339 7.60313 19.7549 7.60313 19.9854V21.7232C7.60313 21.9537 7.68323 22.1747 7.82582 22.3376C7.9684 22.5006 8.16179 22.5921 8.36344 22.5921H23.5697C23.7713 22.5921 23.9647 22.5006 24.1073 22.3376C24.2499 22.1747 24.33 21.9537 24.33 21.7232V19.9854C24.33 19.7549 24.2499 19.5339 24.1073 19.3709C23.9647 19.208 23.7713 19.1164 23.5697 19.1164ZM0.760312 6.95143H3.80156C3.90239 6.95143 3.99908 6.90565 4.07037 6.82418C4.14167 6.7427 4.18172 6.63219 4.18172 6.51696V5.64804C4.18172 5.53281 4.14167 5.4223 4.07037 5.34082C3.99908 5.25934 3.90239 5.21357 3.80156 5.21357H3.04125V0.434464C3.04125 0.319237 3.0012 0.20873 2.9299 0.127252C2.85861 0.0457739 2.76192 0 2.66109 0H1.52062C1.45016 0.000143724 1.38112 0.0226664 1.32121 0.0650537C1.26129 0.107441 1.21287 0.168025 1.18134 0.240041L0.801179 1.10897C0.772202 1.17515 0.758497 1.24869 0.761363 1.32262C0.764229 1.39655 0.783571 1.46842 0.817556 1.53142C0.851541 1.59441 0.899041 1.64644 0.955553 1.68256C1.01207 1.71869 1.07572 1.73773 1.14047 1.73786H1.52062V5.21357H0.760312C0.659489 5.21357 0.562795 5.25934 0.491501 5.34082C0.420208 5.4223 0.380156 5.53281 0.380156 5.64804V6.51696C0.380156 6.63219 0.420208 6.7427 0.491501 6.82418C0.562795 6.90565 0.659489 6.95143 0.760312 6.95143ZM0.574511 15.6407H3.80156C3.90239 15.6407 3.99908 15.5949 4.07037 15.5135C4.14167 15.432 4.18172 15.3215 4.18172 15.2062V14.3373C4.18172 14.2221 4.14167 14.1116 4.07037 14.0301C3.99908 13.9486 3.90239 13.9029 3.80156 13.9029H1.96351C2.11985 13.344 4.2606 12.8884 4.2606 10.8377C4.2606 9.25952 3.07261 8.68929 2.14741 8.68929C1.13239 8.68929 0.541247 9.23237 0.224767 9.70756C0.017107 10.0111 0.0822088 10.2963 0.357822 10.5423L0.76554 10.9159C1.03212 11.1636 1.28825 11.0501 1.53155 10.7834C1.65156 10.649 1.81308 10.5741 1.98109 10.5749C2.13933 10.5749 2.42207 10.6596 2.42207 11.0501C2.4235 11.7409 0 12.2361 0 14.8038V15.0211C0 15.4235 0.241399 15.6407 0.574511 15.6407Z" fill="#4281A4"/>
</g>
<defs>
<filter id="filter0_i" x="0" y="0" width="24.33" height="25.33" filterUnits="userSpaceOnUse" color-interpolation-filters="sRGB">
<feFlood flood-opacity="0" result="BackgroundImageFix"/>
<feBlend mode="normal" in="SourceGraphic" in2="BackgroundImageFix" result="shape"/>
<feColorMatrix in="SourceAlpha" type="matrix" values="0 0 0 0 0 0 0 0 0 0 0 0 0 0 0 0 0 0 127 0" result="hardAlpha"/>
<feOffset dy="1"/>
<feGaussianBlur stdDeviation="0.5"/>
<feComposite in2="hardAlpha" operator="arithmetic" k2="-1" k3="1"/>
<feColorMatrix type="matrix" values="0 0 0 0 0 0 0 0 0 0 0 0 0 0 0 0 0 0 0.25 0"/>
<feBlend mode="normal" in2="shape" result="effect1_innerShadow"/>
</filter>
</defs>
</svg>
