<svg width="44" height="27" viewBox="0 0 44 27" fill="none" xmlns="http://www.w3.org/2000/svg">
<g filter="url(#filter0_i)">
<path d="M13.2207 0.40625H17.6504V18.3535C17.6504 20.8027 16.8828 22.748 15.3477 24.1895C13.8242 25.6309 11.8086 26.3516 9.30078 26.3516C6.62891 26.3516 4.56641 25.6777 3.11328 24.3301C1.66016 22.9824 0.933594 21.1074 0.933594 18.7051H5.36328C5.36328 20.0645 5.69727 21.0898 6.36523 21.7812C7.04492 22.4609 8.02344 22.8008 9.30078 22.8008C10.4961 22.8008 11.4453 22.4082 12.1484 21.623C12.8633 20.8262 13.2207 19.7305 13.2207 18.3359V0.40625ZM30.0957 14.9434L27.1953 18.0195V26H22.748V0.40625H27.1953V12.4121L29.6562 9.37109L37.1445 0.40625H42.5234L33.0137 11.7441L43.0684 26H37.7949L30.0957 14.9434Z" fill="#E0AFA0"/>
</g>
<defs>
<filter id="filter0_i" x="0.933594" y="0.40625" width="42.1348" height="26.9453" filterUnits="userSpaceOnUse" color-interpolation-filters="sRGB">
<feFlood flood-opacity="0" result="BackgroundImageFix"/>
<feBlend mode="normal" in="SourceGraphic" in2="BackgroundImageFix" result="shape"/>
<feColorMatrix in="SourceAlpha" type="matrix" values="0 0 0 0 0 0 0 0 0 0 0 0 0 0 0 0 0 0 127 0" result="hardAlpha"/>
<feOffset dy="1"/>
<feGaussianBlur stdDeviation="1"/>
<feComposite in2="hardAlpha" operator="arithmetic" k2="-1" k3="1"/>
<feColorMatrix type="matrix" values="0 0 0 0 0 0 0 0 0 0 0 0 0 0 0 0 0 0 0.25 0"/>
<feBlend mode="normal" in2="shape" result="effect1_innerShadow"/>
</filter>
</defs>
</svg>
