<svg width="48" height="48" viewBox="0 0 48 48" fill="none" xmlns="http://www.w3.org/2000/svg">
<g filter="url(#filter-icon-mtb-cog)">
<path d="M47.3869 29.7677L43.0804 27.3871C43.5151 25.1419 43.5151 22.8387 43.0804 20.5936L47.3869 18.2129C47.8823 17.942 48.1047 17.3807 47.9429 16.8581C46.8208 13.4129 44.9102 10.2968 42.4132 7.70329C42.0291 7.30651 41.4023 7.20974 40.9171 7.48071L36.6106 9.86134C34.8011 8.37103 32.7186 7.21942 30.4643 6.46458V1.71299C30.4643 1.17105 30.0701 0.696862 29.5141 0.580734C25.804 -0.212812 22.003 -0.174102 18.475 0.580734C17.919 0.696862 17.5247 1.17105 17.5247 1.71299V6.47426C15.2805 7.23877 13.198 8.39038 11.3784 9.87102L7.08203 7.49039C6.58668 7.21942 5.97003 7.30652 5.58588 7.71297C3.08894 10.2968 1.17833 13.4129 0.0562185 16.8678C-0.115636 17.3903 0.116873 17.9516 0.612218 18.2226L4.91868 20.6032C4.48399 22.8484 4.48399 25.1516 4.91868 27.3968L0.612218 29.7774C0.116873 30.0484 -0.105527 30.6097 0.0562185 31.1322C1.17833 34.5774 3.08894 37.6935 5.58588 40.287C5.97003 40.6838 6.59679 40.7806 7.08203 40.5096L11.3885 38.129C13.198 39.6193 15.2805 40.7709 17.5348 41.5257V46.287C17.5348 46.8289 17.9291 47.3031 18.4851 47.4193C22.1951 48.2128 25.9961 48.1741 29.5242 47.4193C30.0802 47.3031 30.4744 46.8289 30.4744 46.287V41.5257C32.7186 40.7612 34.8011 39.6096 36.6207 38.129L40.9272 40.5096C41.4226 40.7806 42.0392 40.6935 42.4234 40.287C44.9203 37.7032 46.8309 34.5871 47.953 31.1322C48.1047 30.6 47.8823 30.0387 47.3869 29.7677ZM23.9945 31.7322C19.5364 31.7322 15.9072 28.258 15.9072 23.9903C15.9072 19.7226 19.5364 16.2484 23.9945 16.2484C28.4526 16.2484 32.0818 19.7226 32.0818 23.9903C32.0818 28.258 28.4526 31.7322 23.9945 31.7322Z" fill="#E0AFA0"/>
</g>
<defs>
<filter id="filter-icon-mtb-cog" x="0" y="0" width="48" height="49" filterUnits="userSpaceOnUse" color-interpolation-filters="sRGB">
<feFlood flood-opacity="0" result="BackgroundImageFix"/>
<feBlend mode="normal" in="SourceGraphic" in2="BackgroundImageFix" result="shape"/>
<feColorMatrix in="SourceAlpha" type="matrix" values="0 0 0 0 0 0 0 0 0 0 0 0 0 0 0 0 0 0 127 0" result="hardAlpha"/>
<feOffset dy="1"/>
<feGaussianBlur stdDeviation="1"/>
<feComposite in2="hardAlpha" operator="arithmetic" k2="-1" k3="1"/>
<feColorMatrix type="matrix" values="0 0 0 0 0 0 0 0 0 0 0 0 0 0 0 0 0 0 0.25 0"/>
<feBlend mode="normal" in2="shape" result="effect1_innerShadow"/>
</filter>
</defs>
</svg>
