<svg width="25" height="25" viewBox="0 0 25 25" fill="none" xmlns="http://www.w3.org/2000/svg">
<g filter="url(#filter-icon-etb-color)">
<path d="M10.2542 0.784727C5.53022 1.7067 1.7235 5.50388 0.792019 10.2135C-0.966391 19.1006 7.05101 25.7254 13.0914 24.7892C15.0494 24.4851 16.0094 22.1944 15.1112 20.4312C14.0134 18.2736 15.5817 15.7549 18.0054 15.7549H21.7931C23.4945 15.7549 24.8727 14.3481 24.8775 12.6515C24.8537 5.16171 18.0387 -0.731295 10.2542 0.784727ZM5.10725 15.7549C4.26607 15.7549 3.58647 15.0753 3.58647 14.2341C3.58647 13.3929 4.26607 12.7133 5.10725 12.7133C5.94844 12.7133 6.62804 13.3929 6.62804 14.2341C6.62804 15.0753 5.94844 15.7549 5.10725 15.7549ZM6.62804 9.67176C5.78685 9.67176 5.10725 8.99216 5.10725 8.15098C5.10725 7.3098 5.78685 6.63021 6.62804 6.63021C7.46923 6.63021 8.14883 7.3098 8.14883 8.15098C8.14883 8.99216 7.46923 9.67176 6.62804 9.67176ZM12.7112 6.63021C11.87 6.63021 11.1904 5.95061 11.1904 5.10943C11.1904 4.26825 11.87 3.58866 12.7112 3.58866C13.5524 3.58866 14.232 4.26825 14.232 5.10943C14.232 5.95061 13.5524 6.63021 12.7112 6.63021ZM18.7943 9.67176C17.9532 9.67176 17.2736 8.99216 17.2736 8.15098C17.2736 7.3098 17.9532 6.63021 18.7943 6.63021C19.6355 6.63021 20.3151 7.3098 20.3151 8.15098C20.3151 8.99216 19.6355 9.67176 18.7943 9.67176Z" fill="#4281A4"/>
</g>
<defs>
<filter id="filter-icon-etb-color" x="0.545471" y="0.545441" width="24.332" height="25.332" filterUnits="userSpaceOnUse" color-interpolation-filters="sRGB">
<feFlood flood-opacity="0" result="BackgroundImageFix"/>
<feBlend mode="normal" in="SourceGraphic" in2="BackgroundImageFix" result="shape"/>
<feColorMatrix in="SourceAlpha" type="matrix" values="0 0 0 0 0 0 0 0 0 0 0 0 0 0 0 0 0 0 127 0" result="hardAlpha"/>
<feOffset dy="1"/>
<feGaussianBlur stdDeviation="0.5"/>
<feComposite in2="hardAlpha" operator="arithmetic" k2="-1" k3="1"/>
<feColorMatrix type="matrix" values="0 0 0 0 0 0 0 0 0 0 0 0 0 0 0 0 0 0 0.25 0"/>
<feBlend mode="normal" in2="shape" result="effect1_innerShadow"/>
</filter>
</defs>
</svg>
