<svg width="25" height="25" viewBox="0 0 25 25" fill="none" xmlns="http://www.w3.org/2000/svg">
<path d="M22.2704 24.8775H3.15241C1.71259 24.8775 0.54541 23.7103 0.54541 22.2705V3.15244C0.54541 1.71262 1.71259 0.545441 3.15241 0.545441H22.2704C23.7103 0.545441 24.8774 1.71262 24.8774 3.15244V22.2705C24.8774 23.7103 23.7103 24.8775 22.2704 24.8775ZM11.1534 19.5516L21.1469 9.55812C21.4863 9.21877 21.4863 8.66853 21.1469 8.32919L19.918 7.10026C19.5786 6.76091 19.0284 6.76086 18.689 7.10026L10.5389 15.2503L6.73384 11.4452C6.39449 11.1059 5.84425 11.1059 5.50485 11.4452L4.27592 12.6741C3.93658 13.0135 3.93658 13.5637 4.27592 13.9031L9.92443 19.5516C10.2638 19.891 10.814 19.891 11.1534 19.5516Z"/>
</svg>
