<svg width="25" height="25" viewBox="0 0 25 25" fill="none" xmlns="http://www.w3.org/2000/svg">
<g filter="url(#filter-icon-etb-underline)">
<path d="M2.28341 3.58694H4.02141V11.1907C4.02141 15.3832 7.91997 18.7945 12.7114 18.7945C17.5029 18.7945 21.4014 15.3832 21.4014 11.1907V3.58694H23.1394C23.3699 3.58694 23.5909 3.50683 23.7539 3.36423C23.9169 3.22164 24.0084 3.02823 24.0084 2.82657V1.30582C24.0084 1.10415 23.9169 0.910748 23.7539 0.76815C23.5909 0.625551 23.3699 0.545441 23.1394 0.545441H15.3184C15.0879 0.545441 14.8669 0.625551 14.7039 0.76815C14.541 0.910748 14.4494 1.10415 14.4494 1.30582V2.82657C14.4494 3.02823 14.541 3.22164 14.7039 3.36423C14.8669 3.50683 15.0879 3.58694 15.3184 3.58694H17.0564V11.1907C17.0564 12.199 16.5986 13.166 15.7838 13.879C14.969 14.592 13.8638 14.9926 12.7114 14.9926C11.5591 14.9926 10.4539 14.592 9.63904 13.879C8.82419 13.166 8.36642 12.199 8.36642 11.1907V3.58694H10.1044C10.3349 3.58694 10.5559 3.50683 10.7189 3.36423C10.8819 3.22164 10.9734 3.02823 10.9734 2.82657V1.30582C10.9734 1.10415 10.8819 0.910748 10.7189 0.76815C10.5559 0.625551 10.3349 0.545441 10.1044 0.545441H2.28341C2.05294 0.545441 1.8319 0.625551 1.66894 0.76815C1.50597 0.910748 1.41441 1.10415 1.41441 1.30582V2.82657C1.41441 3.02823 1.50597 3.22164 1.66894 3.36423C1.8319 3.50683 2.05294 3.58694 2.28341 3.58694ZM24.0084 21.836H1.41441C1.18394 21.836 0.962904 21.9161 0.799935 22.0587C0.636965 22.2013 0.54541 22.3947 0.54541 22.5963L0.54541 24.1171C0.54541 24.3187 0.636965 24.5122 0.799935 24.6548C0.962904 24.7973 1.18394 24.8775 1.41441 24.8775H24.0084C24.2389 24.8775 24.4599 24.7973 24.6229 24.6548C24.7859 24.5122 24.8774 24.3187 24.8774 24.1171V22.5963C24.8774 22.3947 24.7859 22.2013 24.6229 22.0587C24.4599 21.9161 24.2389 21.836 24.0084 21.836Z"fill="currentColor"/>
</g>
<defs>
<filter id="filter-icon-etb-underline" x="0.54541" y="0.545441" width="24.332" height="25.332" filterUnits="userSpaceOnUse" color-interpolation-filters="sRGB">
<feFlood flood-opacity="0" result="BackgroundImageFix"/>
<feBlend mode="normal" in="SourceGraphic" in2="BackgroundImageFix" result="shape"/>
<feColorMatrix in="SourceAlpha" type="matrix" values="0 0 0 0 0 0 0 0 0 0 0 0 0 0 0 0 0 0 127 0" result="hardAlpha"/>
<feOffset dy="1"/>
<feGaussianBlur stdDeviation="0.5"/>
<feComposite in2="hardAlpha" operator="arithmetic" k2="-1" k3="1"/>
<feColorMatrix type="matrix" values="0 0 0 0 0 0 0 0 0 0 0 0 0 0 0 0 0 0 0.25 0"/>
<feBlend mode="normal" in2="shape" result="effect1_innerShadow"/>
</filter>
</defs>
</svg>
