<svg width="48" height="45" viewBox="0 0 48 45" fill="none" xmlns="http://www.w3.org/2000/svg">
<path d="M44.5714 17.6786H29.1429V3.21429C29.1429 1.4394 27.6075 0 25.7143 0H22.2857C20.3925 0 18.8571 1.4394 18.8571 3.21429V17.6786H3.42857C1.53536 17.6786 0 19.118 0 20.8929V24.1071C0 25.882 1.53536 27.3214 3.42857 27.3214H18.8571V41.7857C18.8571 43.5606 20.3925 45 22.2857 45H25.7143C27.6075 45 29.1429 43.5606 29.1429 41.7857V27.3214H44.5714C46.4646 27.3214 48 25.882 48 24.1071V20.8929C48 19.118 46.4646 17.6786 44.5714 17.6786Z"/>
</svg>
