<svg width="25" height="25" viewBox="0 0 25 25" fill="none" xmlns="http://www.w3.org/2000/svg">
<g filter="url(#filter0_i)">
<path d="M24.8775 1.41444V3.15244C24.8775 3.38292 24.7493 3.60395 24.5212 3.76692C24.293 3.92989 23.9836 4.02144 23.6609 4.02144H18.8888L12.8058 21.4015H16.3613C16.6839 21.4015 16.9934 21.493 17.2215 21.656C17.4497 21.8189 17.5779 22.04 17.5779 22.2705V24.0085C17.5779 24.2389 17.4497 24.46 17.2215 24.6229C16.9934 24.7859 16.6839 24.8775 16.3613 24.8775H1.76207C1.43941 24.8775 1.12996 24.7859 0.901805 24.6229C0.673648 24.46 0.545471 24.2389 0.545471 24.0085V22.2705C0.545471 22.04 0.673648 21.8189 0.901805 21.656C1.12996 21.493 1.43941 21.4015 1.76207 21.4015H6.53419L12.6172 4.02144H9.06168C8.73901 4.02144 8.42957 3.92989 8.20141 3.76692C7.97325 3.60395 7.84508 3.38292 7.84508 3.15244V1.41444C7.84508 1.18397 7.97325 0.962934 8.20141 0.799965C8.42957 0.636996 8.73901 0.545441 9.06168 0.545441H23.6609C23.9836 0.545441 24.293 0.636996 24.5212 0.799965C24.7493 0.962934 24.8775 1.18397 24.8775 1.41444Z" fill="#4281A4"/>
</g>
<defs>
<filter id="filter0_i" x="0.545471" y="0.545441" width="24.332" height="25.332" filterUnits="userSpaceOnUse" color-interpolation-filters="sRGB">
<feFlood flood-opacity="0" result="BackgroundImageFix"/>
<feBlend mode="normal" in="SourceGraphic" in2="BackgroundImageFix" result="shape"/>
<feColorMatrix in="SourceAlpha" type="matrix" values="0 0 0 0 0 0 0 0 0 0 0 0 0 0 0 0 0 0 127 0" result="hardAlpha"/>
<feOffset dy="1"/>
<feGaussianBlur stdDeviation="0.5"/>
<feComposite in2="hardAlpha" operator="arithmetic" k2="-1" k3="1"/>
<feColorMatrix type="matrix" values="0 0 0 0 0 0 0 0 0 0 0 0 0 0 0 0 0 0 0.25 0"/>
<feBlend mode="normal" in2="shape" result="effect1_innerShadow"/>
</filter>
</defs>
</svg>
